<svg xmlns="http://www.w3.org/2000/svg" width="70.6" height="70.62" viewBox="0 0 70.6 70.62">
  <metadata><?xpacket begin="﻿" id="W5M0MpCehiHzreSzNTczkc9d"?>
<x:xmpmeta xmlns:x="adobe:ns:meta/" x:xmptk="Adobe XMP Core 5.6-c142 79.160924, 2017/07/13-01:06:39        ">
   <rdf:RDF xmlns:rdf="http://www.w3.org/1999/02/22-rdf-syntax-ns#">
      <rdf:Description rdf:about=""/>
   </rdf:RDF>
</x:xmpmeta>
                                                                                                    
                                                                                                    
                                                                                                    
                                                                                                    
                                                                                                    
                                                                                                    
                                                                                                    
                                                                                                    
                                                                                                    
                                                                                                    
                                                                                                    
                                                                                                    
                                                                                                    
                                                                                                    
                                                                                                    
                                                                                                    
                                                                                                    
                                                                                                    
                                                                                                    
                                                                                                    
                           
<?xpacket end="w"?></metadata>
<defs>
    <style>
      .cls-1 {
        fill: #fc4e5e;
        fill-rule: evenodd;
      }
    </style>
  </defs>
  <path id="Elipsa_1_kopiuj_2_kopia_4" data-name="Elipsa 1 kopiuj 2 kopia 4" class="cls-1" d="M1422.58,3763.44a35.31,35.31,0,1,1-35.3,35.31A35.309,35.309,0,0,1,1422.58,3763.44Zm17.97,37.31c-0.01,1.34-.02,2.66-0.02,3.99h-3.98c-0.01-1.33-.01-2.65-0.02-3.98-1.33-.01-2.66-0.03-3.99-0.04v-3.97c1.33-.01,2.65-0.02,3.99-0.02,0-1.34.02-2.66,0.03-3.99h3.97c0,1.33.01,2.66,0.02,3.99,1.33,0.01,2.66.01,3.99,0.02v3.97Zm-31.07,11.02a13.965,13.965,0,0,1,5.06-26.97,14.18,14.18,0,0,1,9.33,3.44c-1.13,1.28-2.29,2.51-3.54,3.67-3.17-2.2-7.69-2.82-10.86-.29-4.54,3.14-4.74,10.55-.38,13.93,4.25,3.85,12.27,1.94,13.45-3.96-2.66-.04-5.33,0-7.99-0.08-0.01-1.59-.01-3.18-0.01-4.76q6.675-.03,13.35.01c0.26,3.73-.23,7.71-2.52,10.79C1421.9,3812.44,1414.92,3813.86,1409.48,3811.77Z" transform="translate(-1387.28 -3763.44)"/>
</svg>
