<svg xmlns="http://www.w3.org/2000/svg" width="70.59" height="70.62" viewBox="0 0 70.59 70.62">
  <metadata><?xpacket begin="﻿" id="W5M0MpCehiHzreSzNTczkc9d"?>
<x:xmpmeta xmlns:x="adobe:ns:meta/" x:xmptk="Adobe XMP Core 5.6-c142 79.160924, 2017/07/13-01:06:39        ">
   <rdf:RDF xmlns:rdf="http://www.w3.org/1999/02/22-rdf-syntax-ns#">
      <rdf:Description rdf:about=""/>
   </rdf:RDF>
</x:xmpmeta>
                                                                                                    
                                                                                                    
                                                                                                    
                                                                                                    
                                                                                                    
                                                                                                    
                                                                                                    
                                                                                                    
                                                                                                    
                                                                                                    
                                                                                                    
                                                                                                    
                                                                                                    
                                                                                                    
                                                                                                    
                                                                                                    
                                                                                                    
                                                                                                    
                                                                                                    
                                                                                                    
                           
<?xpacket end="w"?></metadata>
<defs>
    <style>
      .cls-1 {
        fill: #fc4e5e;
        fill-rule: evenodd;
      }
    </style>
  </defs>
  <path id="Elipsa_1_kopiuj_2_kopia_3" data-name="Elipsa 1 kopiuj 2 kopia 3" class="cls-1" d="M1327.45,3763.44a35.31,35.31,0,1,1-35.29,35.31A35.3,35.3,0,0,1,1327.45,3763.44Zm6.52,52.12h-13.03a9.867,9.867,0,0,1-9.86-9.86v-13.9a9.867,9.867,0,0,1,9.86-9.86h13.03a9.865,9.865,0,0,1,9.85,9.86v13.9A9.865,9.865,0,0,1,1333.97,3815.56Zm-6.45-26.19a8.984,8.984,0,0,0-6.55,2.56,9.545,9.545,0,0,0-2.86,6.78,9.342,9.342,0,0,0,9.34,9.33,9.187,9.187,0,0,0,6.58-2.74,9.5,9.5,0,0,0,2.76-6.55,9.037,9.037,0,0,0-2.33-6.54A9.57,9.57,0,0,0,1327.52,3789.37Zm8.76-1.53a2.01,2.01,0,1,0,2.01,2.01A2.01,2.01,0,0,0,1336.28,3787.84Zm-8.83,15.86a5,5,0,0,1-4.99-4.99,5.148,5.148,0,0,1,1.54-3.65,4.666,4.666,0,0,1,3.25-1.35,0.66,0.66,0,0,1,.14.01,5.4,5.4,0,0,1,3.9,1.46,4.927,4.927,0,0,1,1.15,3.48A5.041,5.041,0,0,1,1327.45,3803.7Z" transform="translate(-1292.16 -3763.44)"/>
</svg>
