<svg xmlns="http://www.w3.org/2000/svg" width="90.13" height="106.28" viewBox="0 0 90.13 106.28">
  <metadata><?xpacket begin="﻿" id="W5M0MpCehiHzreSzNTczkc9d"?>
<x:xmpmeta xmlns:x="adobe:ns:meta/" x:xmptk="Adobe XMP Core 5.6-c142 79.160924, 2017/07/13-01:06:39        ">
   <rdf:RDF xmlns:rdf="http://www.w3.org/1999/02/22-rdf-syntax-ns#">
      <rdf:Description rdf:about=""/>
   </rdf:RDF>
</x:xmpmeta>
                                                                                                    
                                                                                                    
                                                                                                    
                                                                                                    
                                                                                                    
                                                                                                    
                                                                                                    
                                                                                                    
                                                                                                    
                                                                                                    
                                                                                                    
                                                                                                    
                                                                                                    
                                                                                                    
                                                                                                    
                                                                                                    
                                                                                                    
                                                                                                    
                                                                                                    
                                                                                                    
                           
<?xpacket end="w"?></metadata>
<defs>
    <style>
      .cls-1 {
        fill: #3d3d49;
        fill-rule: evenodd;
      }
    </style>
  </defs>
  <path id="Kształt_1" data-name="Kształt 1" class="cls-1" d="M1321.91,4139.02a1.8,1.8,0,0,1-1.33.6,1.771,1.771,0,0,1-1.32-2.94,9.25,9.25,0,0,0,2.32-6.69,9.063,9.063,0,0,0-3.06-6.32,11.858,11.858,0,0,0-7.44-2.94h-13.03a1.087,1.087,0,0,1-.18-0.01,9.555,9.555,0,0,1-7.04-2.75,11.129,11.129,0,0,1-3.37-7.35,10.4,10.4,0,0,1,1.14-5.81c0.01-.02.02-0.03,0.03-0.05l6.15-10.83a16.25,16.25,0,1,0-29.46,0l6.15,10.83a0.106,0.106,0,0,0,.02.05,10.416,10.416,0,0,1,1.14,5.82,11.126,11.126,0,0,1-3.37,7.34,9.54,9.54,0,0,1-7.04,2.75,1.087,1.087,0,0,1-.18.01h-13.03a11.881,11.881,0,0,0-7.44,2.94,9.063,9.063,0,0,0-3.06,6.32,9.258,9.258,0,0,0,2.33,6.69,1.768,1.768,0,0,1-2.65,2.34,12.749,12.749,0,0,1-3.2-9.24,12.488,12.488,0,0,1,4.25-8.75,15.256,15.256,0,0,1,9.69-3.83h12.88a1.589,1.589,0,0,1,.38-0.02,6.091,6.091,0,0,0,4.63-1.75,7.713,7.713,0,0,0,2.29-5.04,7,7,0,0,0-.73-3.91l-6.13-10.8a0.95,0.95,0,0,1-.1-0.17,19.775,19.775,0,1,1,35.79,0,0.95,0.95,0,0,1-.1.17l-6.13,10.8a6.914,6.914,0,0,0-.72,3.91,7.656,7.656,0,0,0,2.28,5.04,6.091,6.091,0,0,0,4.63,1.75,1.7,1.7,0,0,1,.39.02h12.87a15.3,15.3,0,0,1,9.7,3.83,12.567,12.567,0,0,1,4.25,8.75A12.792,12.792,0,0,1,1321.91,4139.02Zm-12.86-24.44h-11.01a1.765,1.765,0,1,1,0-3.53h11.01a11.779,11.779,0,0,0,11.76-11.76,9.065,9.065,0,0,0-9.06-9.06,6.9,6.9,0,0,0-6.89,6.89,5.166,5.166,0,0,0,5.16,5.16,3.781,3.781,0,0,0,3.78-3.77,1.765,1.765,0,1,1,3.53,0,7.311,7.311,0,0,1-7.31,7.3,8.7,8.7,0,0,1-8.69-8.69,10.426,10.426,0,0,1,10.42-10.42,12.6,12.6,0,0,1,12.59,12.59A15.309,15.309,0,0,1,1309.05,4114.58Zm-16.54-49.35a1.779,1.779,0,0,1-2.41.65,1.786,1.786,0,0,1-.65-2.42l1.87-3.23a1.768,1.768,0,0,1,3.06,1.77Zm-12.46-1.7a1.767,1.767,0,0,1-1.77-1.77v-3.73a1.765,1.765,0,0,1,3.53,0v3.73A1.765,1.765,0,0,1,1280.05,4063.53Zm-10.07,2.34a1.669,1.669,0,0,1-.88.24,1.757,1.757,0,0,1-1.53-.88l-1.87-3.23a1.768,1.768,0,0,1,3.06-1.77l1.87,3.23A1.755,1.755,0,0,1,1269.98,4065.87Zm-19.91,39.94a7.311,7.311,0,0,1-7.31-7.3,1.77,1.77,0,1,1,3.54,0,3.773,3.773,0,0,0,3.77,3.77,5.16,5.16,0,0,0,5.16-5.16,6.9,6.9,0,0,0-6.89-6.89,9.071,9.071,0,0,0-9.06,9.06,11.781,11.781,0,0,0,11.77,11.76h11a1.765,1.765,0,1,1,0,3.53h-11a15.311,15.311,0,0,1-15.3-15.29,12.6,12.6,0,0,1,12.59-12.59,10.426,10.426,0,0,1,10.42,10.42A8.7,8.7,0,0,1,1250.07,4105.81Zm12.02,19.6c9.83-2.53,13.31-6.77,13.31-16.18v-12.85h-1.85a5.385,5.385,0,1,1,5.38-5.39v1.86h2.23v-1.86a5.385,5.385,0,1,1,5.38,5.39h-1.85v12.85c0,9.41,3.48,13.65,13.31,16.18,8.77,2.28,13.95,8.41,14.2,16.81a17.622,17.622,0,0,1-15.34,18.07,1.942,1.942,0,0,1-.24.02,1.768,1.768,0,0,1-.23-3.52,14.105,14.105,0,0,0,12.28-14.46c-0.21-6.82-4.31-11.61-11.56-13.5-5.99-1.54-9.95-3.78-12.48-7.04-2.37-3.05-3.47-7.04-3.47-12.56v-12.85h-2.23v12.85c0,5.52-1.1,9.51-3.47,12.56-2.52,3.26-6.49,5.5-12.48,7.04-7.25,1.89-11.35,6.68-11.56,13.5a14.105,14.105,0,0,0,12.28,14.46,1.766,1.766,0,1,1-.47,3.5,17.63,17.63,0,0,1-15.34-18.07C1248.15,4133.82,1253.32,4127.69,1262.09,4125.41Zm13.31-34.42a1.85,1.85,0,1,0-1.85,1.86h1.85v-1.86Zm9.29,1.86h1.85a1.855,1.855,0,1,0-1.85-1.86v1.86Zm-20.18,55.68a11.892,11.892,0,0,1-2.65-7.58c0-6.15,4.47-11.16,9.97-11.16s9.98,5.01,9.98,11.16a1.765,1.765,0,0,1-3.53,0c0-4.21-2.89-7.63-6.45-7.63s-6.44,3.42-6.44,7.63a8.361,8.361,0,0,0,1.8,5.27l11.49,11.82c0.02,0.03.05,0.05,0.07,0.08a3.046,3.046,0,0,0,1.27.9,3.117,3.117,0,0,0,1.31-.91c0.02-.02.04-0.05,0.06-0.07l11.49-11.82a8.361,8.361,0,0,0,1.8-5.27c0-4.2-2.89-7.62-6.44-7.62a5.515,5.515,0,0,0-2.59.64,1.764,1.764,0,1,1-1.63-3.13,9.033,9.033,0,0,1,4.22-1.05c5.5,0,9.98,5.01,9.98,11.16a11.837,11.837,0,0,1-2.65,7.56,0.218,0.218,0,0,1-.04.05,0.572,0.572,0,0,1-.07.08l-11.5,11.83a5.96,5.96,0,0,1-3.94,2.09,5.819,5.819,0,0,1-3.91-2.1l-11.5-11.83A0.943,0.943,0,0,1,1264.51,4148.53Z" transform="translate(-1235 -4056.28)"/>
</svg>
