<svg xmlns="http://www.w3.org/2000/svg" width="24.094" height="21.719" viewBox="0 0 24.094 21.719">
  <metadata><?xpacket begin="﻿" id="W5M0MpCehiHzreSzNTczkc9d"?>
<x:xmpmeta xmlns:x="adobe:ns:meta/" x:xmptk="Adobe XMP Core 5.6-c142 79.160924, 2017/07/13-01:06:39        ">
   <rdf:RDF xmlns:rdf="http://www.w3.org/1999/02/22-rdf-syntax-ns#">
      <rdf:Description rdf:about=""/>
   </rdf:RDF>
</x:xmpmeta>
                                                                                                    
                                                                                                    
                                                                                                    
                                                                                                    
                                                                                                    
                                                                                                    
                                                                                                    
                                                                                                    
                                                                                                    
                                                                                                    
                                                                                                    
                                                                                                    
                                                                                                    
                                                                                                    
                                                                                                    
                                                                                                    
                                                                                                    
                                                                                                    
                                                                                                    
                                                                                                    
                           
<?xpacket end="w"?></metadata>
<defs>
    <style>
      .cls-1 {
        fill: #3d3d49;
        fill-rule: evenodd;
      }
    </style>
  </defs>
  <path id="Kształt_1_kopiuj_4" data-name="Kształt 1 kopiuj 4" class="cls-1" d="M32.754,37.439a7.871,7.871,0,0,1-1.762-5.026c0-4.078,2.968-7.4,6.616-7.4s6.615,3.318,6.615,7.4a1.171,1.171,0,0,1-2.342,0c0-2.787-1.917-5.053-4.273-5.053s-4.274,2.267-4.274,5.053a5.535,5.535,0,0,0,1.2,3.5l7.615,7.833q0.026,0.027.05,0.056a1.971,1.971,0,0,0,.843.6,2.073,2.073,0,0,0,.864-0.605l0.043-.047,7.616-7.834a5.537,5.537,0,0,0,1.194-3.5c0-2.787-1.917-5.054-4.273-5.054a3.677,3.677,0,0,0-1.716.426,1.171,1.171,0,1,1-1.083-2.076,6,6,0,0,1,2.8-.692c3.648,0,6.615,3.318,6.615,7.4a7.873,7.873,0,0,1-1.752,5.013l-0.029.035-0.048.052-7.625,7.842a3.929,3.929,0,0,1-2.607,1.382,3.87,3.87,0,0,1-2.595-1.387l-7.626-7.844C32.794,37.486,32.773,37.463,32.754,37.439Z" transform="translate(-31 -25.031)"/>
</svg>
