<svg xmlns="http://www.w3.org/2000/svg" width="53.063" height="62.563" viewBox="0 0 53.063 62.563">
  <metadata><?xpacket begin="﻿" id="W5M0MpCehiHzreSzNTczkc9d"?>
<x:xmpmeta xmlns:x="adobe:ns:meta/" x:xmptk="Adobe XMP Core 5.6-c142 79.160924, 2017/07/13-01:06:39        ">
   <rdf:RDF xmlns:rdf="http://www.w3.org/1999/02/22-rdf-syntax-ns#">
      <rdf:Description rdf:about=""/>
   </rdf:RDF>
</x:xmpmeta>
                                                                                                    
                                                                                                    
                                                                                                    
                                                                                                    
                                                                                                    
                                                                                                    
                                                                                                    
                                                                                                    
                                                                                                    
                                                                                                    
                                                                                                    
                                                                                                    
                                                                                                    
                                                                                                    
                                                                                                    
                                                                                                    
                                                                                                    
                                                                                                    
                                                                                                    
                                                                                                    
                           
<?xpacket end="w"?></metadata>
<defs>
    <style>
      .cls-1 {
        fill: #fff;
        fill-rule: evenodd;
      }
    </style>
  </defs>
  <path id="Kształt_2" data-name="Kształt 2" class="cls-1" d="M92.539,83.967l-0.781.763-0.766-.763H90.807v1.761h0.512V84.945l0.415,0.391h0.056l0.417-.391v0.783h0.512V83.967H92.539ZM90.02,85.728V84.373H90.5v-0.4H89.044v0.4h0.481v1.355h0.5ZM75.294,87.7c0.009-.01.018-0.02,0.026-0.031a6.991,6.991,0,0,0,1.555-4.451c0-3.621-2.635-6.567-5.874-6.567a5.329,5.329,0,0,0-2.486.614,1.04,1.04,0,0,0,.962,1.844A3.263,3.263,0,0,1,71,78.73c2.093,0,3.794,2.013,3.794,4.488a4.916,4.916,0,0,1-1.06,3.105l-6.763,6.956-0.038.042a1.841,1.841,0,0,1-.768.537,1.752,1.752,0,0,1-.749-0.531c-0.014-.017-0.029-0.034-0.045-0.049l-6.761-6.956a4.914,4.914,0,0,1-1.062-3.106c0-2.475,1.7-4.488,3.8-4.488s3.794,2.013,3.794,4.488a1.04,1.04,0,1,0,2.08,0c0-3.621-2.635-6.567-5.874-6.567s-5.874,2.946-5.874,6.567a6.989,6.989,0,0,0,1.564,4.463c0.018,0.021.035,0.042,0.055,0.061l6.772,6.965a3.438,3.438,0,0,0,2.3,1.231,3.487,3.487,0,0,0,2.315-1.227l6.77-6.963c0.015-.015.029-0.031,0.043-0.046M66.179,37.64a1.04,1.04,0,0,0,1.04-1.04V34.406a1.04,1.04,0,0,0-2.08,0V36.6a1.04,1.04,0,0,0,1.04,1.04M49.107,67.694h6.481a1.04,1.04,0,0,0,0-2.08H49.107a6.932,6.932,0,0,1-6.924-6.924,5.338,5.338,0,0,1,5.331-5.332,4.062,4.062,0,0,1,4.057,4.058,3.041,3.041,0,0,1-3.038,3.038,2.225,2.225,0,0,1-2.222-2.223,1.04,1.04,0,0,0-2.08,0,4.307,4.307,0,0,0,4.3,4.3,5.124,5.124,0,0,0,5.118-5.117,6.144,6.144,0,0,0-6.137-6.137A7.419,7.419,0,0,0,40.1,58.691a9.014,9.014,0,0,0,9,9m9.727-29.053a1.04,1.04,0,0,0,1.8-1.04l-1.1-1.9a1.04,1.04,0,0,0-1.8,1.039ZM43,82.172A1.04,1.04,0,0,0,43.1,80.7a5.447,5.447,0,0,1-1.367-3.941,5.327,5.327,0,0,1,1.8-3.716,6.965,6.965,0,0,1,4.377-1.734h7.67a0.936,0.936,0,0,0,.108-0.006,5.639,5.639,0,0,0,4.146-1.615,6.574,6.574,0,0,0,1.982-4.327,6.159,6.159,0,0,0-.67-3.424l-0.016-.028-3.62-6.377a9.455,9.455,0,0,1-.889-4.029,9.561,9.561,0,0,1,19.122,0,9.457,9.457,0,0,1-.889,4.029l-3.62,6.377-0.016.028a6.156,6.156,0,0,0-.671,3.424,6.575,6.575,0,0,0,1.982,4.327,5.638,5.638,0,0,0,4.146,1.615,0.937,0.937,0,0,0,.107.006h7.671a6.971,6.971,0,0,1,4.377,1.734,5.327,5.327,0,0,1,1.8,3.716A5.447,5.447,0,0,1,89.263,80.7a1.04,1.04,0,0,0,1.559,1.376,7.518,7.518,0,0,0,1.884-5.437,7.394,7.394,0,0,0-2.5-5.155A9.047,9.047,0,0,0,84.5,69.235H76.917a1.031,1.031,0,0,0-.225-0.01,3.571,3.571,0,0,1-2.726-1.033,4.5,4.5,0,0,1-1.347-2.966,4.069,4.069,0,0,1,.429-2.3l3.608-6.356a0.9,0.9,0,0,0,.055-0.1,11.525,11.525,0,0,0,1.108-4.959,11.641,11.641,0,0,0-23.282,0,11.524,11.524,0,0,0,1.109,4.959,1.073,1.073,0,0,0,.055.1l3.609,6.356a4.068,4.068,0,0,1,.429,2.3,4.5,4.5,0,0,1-1.347,2.966,3.576,3.576,0,0,1-2.725,1.033,1.037,1.037,0,0,0-.226.01H47.861a9.049,9.049,0,0,0-5.705,2.254,7.4,7.4,0,0,0-2.5,5.156,7.516,7.516,0,0,0,1.884,5.437A1.04,1.04,0,0,0,43,82.172M75.939,94.614a1.055,1.055,0,0,0,.138-0.009,10.378,10.378,0,0,0,9.032-10.639c-0.15-4.946-3.2-8.553-8.362-9.894-5.783-1.494-7.832-3.987-7.832-9.527V56.98h1.09a3.17,3.17,0,1,0-3.17-3.17V54.9H65.524V53.81a3.17,3.17,0,1,0-3.17,3.17h1.09v7.565c0,5.54-2.049,8.034-7.833,9.527-5.163,1.341-8.211,4.948-8.36,9.894a10.378,10.378,0,0,0,9.032,10.639,1.04,1.04,0,0,0,.273-2.062,8.3,8.3,0,0,1-7.226-8.513c0.122-4.016,2.539-6.837,6.8-7.944,3.526-.911,5.861-2.228,7.349-4.145,1.393-1.8,2.043-4.146,2.043-7.4V56.98h1.311v7.565c0,3.25.65,5.6,2.043,7.4,1.487,1.917,3.822,3.234,7.347,4.144,4.266,1.108,6.683,3.929,6.8,7.945A8.3,8.3,0,0,1,75.8,92.543a1.04,1.04,0,0,0,.136,2.071m-7.024-40.8a1.09,1.09,0,1,1,1.09,1.09h-1.09V53.81ZM63.444,54.9h-1.09a1.09,1.09,0,1,1,1.09-1.09V54.9Zm20.381,7.634a4.307,4.307,0,0,0,4.3-4.3,1.04,1.04,0,0,0-2.08,0,2.224,2.224,0,0,1-2.222,2.222,3.041,3.041,0,0,1-3.038-3.038,4.062,4.062,0,0,1,4.057-4.057,5.338,5.338,0,0,1,5.332,5.331,6.933,6.933,0,0,1-6.925,6.925H76.771a1.039,1.039,0,1,0,0,2.079h6.481a9.014,9.014,0,0,0,9-9,7.419,7.419,0,0,0-7.411-7.411,6.144,6.144,0,0,0-6.137,6.137,5.123,5.123,0,0,0,5.117,5.117M72.1,39.022a1.039,1.039,0,0,0,1.42-.381l1.1-1.9a1.039,1.039,0,1,0-1.8-1.039l-1.1,1.9a1.041,1.041,0,0,0,.381,1.421" transform="translate(-39.656 -33.375)"/>
</svg>
