<svg xmlns="http://www.w3.org/2000/svg" width="70.6" height="70.62" viewBox="0 0 70.6 70.62">
  <metadata><?xpacket begin="﻿" id="W5M0MpCehiHzreSzNTczkc9d"?>
<x:xmpmeta xmlns:x="adobe:ns:meta/" x:xmptk="Adobe XMP Core 5.6-c142 79.160924, 2017/07/13-01:06:39        ">
   <rdf:RDF xmlns:rdf="http://www.w3.org/1999/02/22-rdf-syntax-ns#">
      <rdf:Description rdf:about=""/>
   </rdf:RDF>
</x:xmpmeta>
                                                                                                    
                                                                                                    
                                                                                                    
                                                                                                    
                                                                                                    
                                                                                                    
                                                                                                    
                                                                                                    
                                                                                                    
                                                                                                    
                                                                                                    
                                                                                                    
                                                                                                    
                                                                                                    
                                                                                                    
                                                                                                    
                                                                                                    
                                                                                                    
                                                                                                    
                                                                                                    
                           
<?xpacket end="w"?></metadata>
<defs>
    <style>
      .cls-1 {
        fill: #fc4e5e;
        fill-rule: evenodd;
      }
    </style>
  </defs>
  <path id="Elipsa_1_kopiuj_2_kopia_2" data-name="Elipsa 1 kopiuj 2 kopia 2" class="cls-1" d="M1232.36,3763.44a35.31,35.31,0,1,1-35.3,35.31A35.309,35.309,0,0,1,1232.36,3763.44Zm-4.89,49.66c13.33,0,20.61-11.04,20.61-20.61,0-.32,0-0.63-0.02-0.94a14.666,14.666,0,0,0,3.62-3.75,14.567,14.567,0,0,1-4.16,1.14,7.3,7.3,0,0,0,3.18-4.01,14.4,14.4,0,0,1-4.6,1.76,7.245,7.245,0,0,0-12.53,4.96,6.96,6.96,0,0,0,.19,1.65,20.637,20.637,0,0,1-14.94-7.57,7.246,7.246,0,0,0,2.25,9.67,7.12,7.12,0,0,1-3.28-.91,0.308,0.308,0,0,0-.01.1,7.259,7.259,0,0,0,5.82,7.1,7.52,7.52,0,0,1-1.91.25,6.917,6.917,0,0,1-1.37-.13,7.262,7.262,0,0,0,6.77,5.03,14.489,14.489,0,0,1-9,3.1,13.94,13.94,0,0,1-1.72-.1,20.441,20.441,0,0,0,11.1,3.26" transform="translate(-1197.06 -3763.44)"/>
</svg>
